<svg xmlns="http://www.w3.org/2000/svg" viewBox="0 0 336.69 76.72"><defs><linearGradient id="a" x1="55.73" y1="27.65" x2="30.4" y2="2.32" gradientUnits="userSpaceOnUse"><stop offset="0" stop-color="#de4800"/><stop offset=".26" stop-color="#ff4800"/><stop offset="1" stop-color="#ff4800"/></linearGradient><linearGradient id="b" x1="41.74" y1="63.06" x2="67.28" y2="37.52" gradientUnits="userSpaceOnUse"><stop offset="0" stop-color="#f50"/><stop offset=".26" stop-color="#ff6d00"/><stop offset="1" stop-color="#ff6d00"/></linearGradient><linearGradient id="c" x1="22.4" y1="15.96" x2="-.54" y2="38.9" gradientUnits="userSpaceOnUse"><stop offset="0" stop-color="#ff9000"/><stop offset=".31" stop-color="#fa0"/><stop offset="1" stop-color="#fa0"/></linearGradient><linearGradient id="d" x1="9.03" y1="47.38" x2="36.25" y2="74.61" gradientUnits="userSpaceOnUse"><stop offset="0" stop-color="#ff6d00"/><stop offset=".26" stop-color="#ff8500"/><stop offset="1" stop-color="#ff8500"/></linearGradient></defs><g data-name="Layer 2"><g data-name="Layer 1"><path d="M99.11 22.05h7.58l12.09 28.61h-8.44l-2.06-5.07h-11l-2 5.07H87zM106 39.46l-3.16-8.07-3.21 8.07zm23.66-17.2h7.87v21.5h13.76v6.9h-21.63zm26.17 0h8.81l6.45 18 6.45-18h8.64l-11.52 28.6h-7.31zm46.98-.21h7.59l12.09 28.61h-8.44L212 45.59h-11l-2 5.07h-8.28zm6.9 17.41l-3.16-8.07-3.21 8.07zm23.66-17.2h13.43c4.34 0 7.34 1.13 9.25 3.08a8.8 8.8 0 012.51 6.66 9 9 0 01-5.84 8.73l6.78 9.9h-9.09l-5.72-8.6h-3.45v8.6h-7.87zm13.06 13.63c2.68 0 4.22-1.3 4.22-3.37v-.08c0-2.23-1.62-3.37-4.26-3.37h-5.15v6.82zm24.39-13.63h7.91v28.4h-7.91zm31.04-.21h7.59l12.09 28.61h-8.44l-2.1-5.07h-11l-2 5.07h-8.28zm6.9 17.41l-3.17-8.07-3.2 8.07z"/><path fill="url(#a)" d="M33.22 0L17.81 8.9l29.45 29.46 19.18-19.18L33.22 0z"/><path fill="url(#b)" d="M66.44 57.54V19.18L33.22 52.4l15.41 15.42 17.81-10.28z"/><path fill="url(#c)" d="M33.22 24.32L17.81 8.9 0 19.18v38.36l33.22-33.22"/><path fill="url(#d)" d="M48.63 67.82L19.18 38.36 0 57.54l33.22 19.18 15.41-8.9z"/><path d="M323.27 23.75h-2.1v-1.7h6.13v1.7h-2.09v5.3h-1.94zm5.99-1.7h2.05l1.69 2.71 1.67-2.71h2.05v7h-1.93V25L333 27.77l-1.78-2.72v4h-1.9z"/></g></g></svg>